<?xml version="1.0" encoding="UTF-8"?>
<svg width="1000px" height="1000px" viewBox="0 0 1000 1000" version="1.1" xmlns="http://www.w3.org/2000/svg" xmlns:xlink="http://www.w3.org/1999/xlink">
    <!-- Generator: Sketch 61.2 (89653) - https://sketch.com -->
    <title>Paying bill for e-course you joining with</title>
    <desc>Created with Sketch.</desc>
    <defs>
        <linearGradient x1="50%" y1="0%" x2="50%" y2="100%" id="linearGradient-1">
            <stop stop-color="#5B5154" offset="0%"></stop>
            <stop stop-color="#2E282A" stop-opacity="0" offset="100%"></stop>
        </linearGradient>
        <linearGradient x1="50%" y1="0%" x2="50%" y2="100%" id="linearGradient-2">
            <stop stop-color="#5B5154" offset="0%"></stop>
            <stop stop-color="#2E282A" stop-opacity="0" offset="100%"></stop>
        </linearGradient>
    </defs>
    <g id="Paying-bill-for-e-course-you-joining-with" stroke="none" stroke-width="1" fill="none" fill-rule="evenodd">
        <rect fill="#FFFFFF" x="0" y="0" width="1000" height="1000"></rect>
        <g transform="translate(170.000000, 205.000000)">
            <path d="M175.861428,67.1586509 C74.5292209,113.360646 -44.5554043,211.707424 16.781846,356.747425 C78.1190964,501.787426 223.279734,398.657671 324.082438,440.832594 C424.885142,483.007518 606.628017,510.039455 646.589029,401.209502 C686.550042,292.379549 631.732567,123.220568 518.259299,74.3910505 C404.78603,25.5615327 277.193635,20.956656 175.861428,67.1586509 Z" id="Path-143" fill="#F7FAFF"></path>
            <g id="Group-27" transform="translate(423.000000, 422.000000)" stroke="#2E282A">
                <rect id="Rectangle" x="0" y="0" width="136" height="19"></rect>
                <rect id="Rectangle-Copy-12" x="35" y="19" width="66" height="19"></rect>
                <line x1="68" y1="0" x2="68" y2="19" id="Path-162"></line>
            </g>
            <g id="Group-28" opacity="0.5" transform="translate(30.000000, 323.000000)" stroke="#2E282A">
                <rect id="Rectangle" x="0" y="0" width="55" height="23"></rect>
                <rect id="Rectangle-Copy-13" x="55" y="0" width="55" height="23"></rect>
                <rect id="Rectangle-Copy-14" x="25" y="23" width="55" height="23"></rect>
                <rect id="Rectangle-Copy-15" x="25" y="69" width="55" height="23"></rect>
                <rect id="Rectangle-Copy-16" x="55" y="46" width="55" height="23"></rect>
            </g>
            <g id="Window" transform="translate(394.000000, 0.000000)">
                <path d="M13,0 L180,0 C182.761424,-5.07265313e-16 185,2.23857625 185,5 L185,353 L185,353 L8,353 L8,5 C8,2.23857625 10.2385763,5.07265313e-16 13,0 Z" id="Rectangle" stroke="#2E282A"></path>
                <rect id="Rectangle-Copy-11" stroke="#2E282A" x="26" y="21" width="142" height="316"></rect>
                <line x1="26" y1="81.5863361" x2="168" y2="81.5863361" id="Path-149" stroke="#2E282A"></line>
                <line x1="26" y1="155.586336" x2="168" y2="155.586336" id="Path-149-Copy" stroke="#2E282A"></line>
                <line x1="26" y1="219.586336" x2="168" y2="219.586336" id="Path-149-Copy-2" stroke="#2E282A"></line>
                <line x1="26" y1="292.586336" x2="168" y2="292.586336" id="Path-149-Copy-3" stroke="#2E282A"></line>
                <line x1="96.5" y1="21" x2="96.5" y2="337" id="Path-150" stroke="#2E282A"></line>
                <line x1="168" y1="219.586336" x2="52.8904198" y2="337" id="Path-151" stroke="url(#linearGradient-1)"></line>
                <line x1="168" y1="146.586336" x2="52.8904198" y2="264" id="Path-151-Copy" stroke="url(#linearGradient-1)"></line>
                <line x1="168" y1="40.5863361" x2="52.8904198" y2="158" id="Path-151-Copy-2" stroke="url(#linearGradient-1)"></line>
                <line x1="126.150802" y1="21.2732061" x2="52.8904198" y2="96" id="Path-151-Copy-3" stroke="url(#linearGradient-2)"></line>
                <rect id="Rectangle" stroke="#2E282A" x="1.8189894e-12" y="353" width="193" height="20"></rect>
                <path d="M0,373 C3.14336357,358.601806 13.4403212,351.93514 30.8908729,353 C57.0667005,354.59729 44.9836551,373 67.6959541,373" id="Path-152" stroke="#2E282A"></path>
                <path d="M15.1147007,373 C18.9886295,368.937374 24.4164145,368.937374 31.3980558,373" id="Path-153" stroke="#2E282A"></path>
                <path d="M39.2424947,373 C36.5437568,368.157497 32.1295919,365.736246 26,365.736246 C16.8056122,365.736246 18.1520229,357.287253 26,357.287253 C33.8479771,357.287253 41.5301646,359.995977 44.5513809,365.736246 C46.5655251,369.563092 50.0294076,371.984344 54.9430284,373" id="Path-154" stroke="#2E282A"></path>
                <path d="M63.2319467,373 C70.84249,371.601902 77.8142884,368.250236 84.1473421,362.945001 C93.6469227,354.98715 107.556329,352.053302 115.297419,373" id="Path-155" stroke="#2E282A"></path>
                <path d="M74.9376057,373 C83.3816772,371.21293 89.3572825,369.090329 92.8644214,366.632198 C98.1251298,362.945001 104.205873,365.96504 107.325542,373" id="Path-156" stroke="#2E282A"></path>
                <path d="M52.8904198,353 C60.4328406,366.061755 70.867615,366.061755 84.1947429,353" id="Path-157" stroke="#2E282A"></path>
                <path d="M107.325542,352.890003 C116.767879,356.222692 122.183481,362.926024 123.57235,373" id="Path-158" stroke="#2E282A"></path>
                <path d="M193,364.982061 C190.085827,367.061915 184.021023,366.401228 174.805588,363 C160.982436,357.898158 149.68862,359.127673 155.335528,373" id="Path-159" stroke="#2E282A"></path>
                <path d="M148.772464,373 C143.305575,360.937229 147.088053,354.233897 160.119897,352.890003" id="Path-160" stroke="#2E282A"></path>
                <path d="M144.976517,373 C138.062221,368.924423 131.412385,368.924423 125.027009,373 C125.445705,362.263173 131.399193,355.596507 142.887475,353" id="Path-161" stroke="#2E282A"></path>
            </g>
            <g id="Box" transform="translate(65.000000, 366.000000)">
                <g id="Group" transform="translate(50.000000, 0.000000)">
                    <rect id="Rectangle" fill="#DF9837" x="0" y="0" width="160" height="92"></rect>
                    <rect id="Rectangle-Copy" fill="#FFDA83" x="0" y="0" width="35" height="92"></rect>
                    <path d="M35,92 L35,48.1107372 M35,42.6234939 L35,20.6706802 M35,14.019738 L35,0" id="Shape" stroke="#2D2829"></path>
                </g>
                <g id="Group-Copy" transform="translate(0.000000, 91.000000)">
                    <rect id="Rectangle" fill="#DF9837" x="10" y="1" width="180" height="130"></rect>
                    <rect id="Rectangle-Copy" fill="#FFDA83" x="10" y="1" width="126" height="130"></rect>
                    <polygon id="Path-28" fill="#2D2829" points="151.935073 1 190 1 190 16.8152097"></polygon>
                    <line x1="10" y1="1" x2="190" y2="1" id="Path-29" stroke="#2D2829"></line>
                    <path d="M136,8.98293409 L136,13.3269572 M136,30.9191221 L136,40.5456321 M136,62.2216732 L136,131" id="Shape" stroke="#2D2829"></path>
                    <line x1="2.73187101e-13" y1="131" x2="209.417077" y2="131" id="Path-30" stroke="#2D2829"></line>
                </g>
            </g>
            <g id="Flowers" transform="translate(485.000000, 265.000000)">
                <path d="M69.8163463,58.8935623 C75.0844505,36.4163715 83.2573896,21.2475043 94.3351636,13.3869606 C110.951825,1.59614508 116.073179,18.9087604 108.067293,28.3029363 C102.730036,34.5657203 96.08892,44.7625956 88.1439451,58.8935623 L69.8163463,58.8935623 Z" id="Path-31" fill="#50C65E"></path>
                <path d="M71.5072376,35.1101837 C71.7625909,27.2960934 74.3694026,19.9064042 79.3276726,12.941116" id="Path-40" stroke="#2E282A"></path>
                <path d="M78.8187578,58.8935623 C84.688188,41.2281809 90.7985056,29.5143542 97.1497107,23.7520823" id="Path-32" stroke="#2E282A"></path>
                <path d="M77.2823902,58.8935623 C77.1555664,33.8468502 67.5430951,16.4610322 48.4449764,6.73610817 C19.7977984,-7.85127782 8.83146541,24.6981598 28.2475083,29.4261645 C47.6635512,34.1541693 61.1928183,35.6203258 62.9069123,58.8935623 L77.2823902,58.8935623 Z" id="Path-33" fill="#369C3D"></path>
                <path d="M72.3584645,58.8935623 C66.4197109,37.9198754 57.4553038,23.6222405 45.4652432,16.0006576" id="Path-34" stroke="#2E282A"></path>
                <path d="M75.4338884,58.8935623 C65.3609107,46.1546825 50.0614529,38.6901618 29.535515,36.5 C-1.25339191,33.2147574 -4.81468133,55.3096561 4.56992265,61.0140141 C13.9545266,66.7183722 39.1390545,48.3018679 51.9710829,46.1379703 C56.6240261,48.632115 60.2693025,52.883979 62.9069123,58.8935623 L75.4338884,58.8935623 Z" id="Path-35" fill="#50C65E"></path>
                <path d="M65.5576828,49.35716 C62.878533,48.5323175 59.8702341,48.550087 56.5327862,49.4104686 L51.9172679,46.1243475 C54.5949837,45.5181192 56.9265124,45.4007486 58.9118538,45.7722355 C60.8971953,46.1437224 63.1124716,47.3386972 65.5576828,49.35716 Z" id="Path-37" fill="#2E282A"></path>
                <path d="M14.0013952,51.8789064 C27.079806,42.3790948 38.668087,38.6305965 48.7662383,40.6334113" id="Path-38" stroke="#2E282A"></path>
                <path d="M55.8925485,46.2354371 C61.9759751,49.1673807 65.8174646,53.3867558 67.4170173,58.8935623" id="Path-39" stroke="#2E282A"></path>
                <rect id="Rectangle" stroke="#2E282A" fill="#FFFFFF" x="46.5731511" y="58" width="55" height="30"></rect>
                <ellipse id="Oval" fill="#FF7302" cx="82.0731511" cy="7.5" rx="4.5" ry="3.5"></ellipse>
                <ellipse id="Oval-Copy-3" fill="#FF7302" cx="86.5731511" cy="1.5" rx="2" ry="1.5"></ellipse>
            </g>
            <g id="MAN-1" transform="translate(68.000000, 91.000000)">
                <g id="Buttom" transform="translate(43.361167, 205.000000)">
                    <g id="Group-5" transform="translate(165.166098, 242.737692)">
                        <g id="Group-4" transform="translate(0.050593, 0.000000)">
                            <path d="M34.3046882,0.528615307 L34.5505623,3.82387501 C34.9941332,9.76871266 37.9434225,15.2448831 42.6629766,18.8868137 L54.0242113,27.6539193 L54.0242113,27.6539193 C38.5541481,30.4089286 30.8191165,31.7864333 30.8191165,31.7864333 C30.8191165,31.7864333 21.3509445,26.576797 2.41460046,16.1575243 L2.41460046,0.528615307 L34.3046882,0.528615307 Z" id="Path-27" fill="#FFB9B0"></path>
                            <path d="M2.65837801,8.19073569 C5.28801264,13.868523 8.99698196,17.9740281 13.785286,20.5072512 C18.57359,23.0404743 23.4919396,23.9248065 28.5403348,23.1602479 L29.8480473,21.0148967 C31.2398121,18.7316545 33.4049213,17.0238448 35.9495225,16.2021334 C38.2709036,15.452505 40.816554,16.0886652 42.5123785,17.8422137 C47.0024288,22.4850265 51.8792782,25.7721995 57.1429267,27.7037326 C66.5999169,31.1740421 77.8249931,33.3881718 77.8249931,42.7959641 L78.8924011,42.7959641 C79.8341042,46.4407845 78.1992126,48.9297999 73.9877264,50.2630103 C67.6704972,52.2628259 44.8455776,52.8929325 37.269315,48.5271241 C32.2184733,45.6165852 26.9555668,42.577093 21.4805954,39.4086474 L18.4250744,44.1664284 L4.91394478,39.6808956 C1.9939669,38.711498 0.0492689017,35.9491237 0.121418596,32.8732829 L0.532136394,15.3638175 C0.549081261,14.6414345 0.67777301,13.9260304 0.913638369,13.2430283 L2.65837801,8.19073569 L2.65837801,8.19073569 Z" id="Path-24" fill="#2C2626"></path>
                            <path d="M78.8924011,42.7959641 C79.8341042,46.4407845 78.1992126,48.9297999 73.9877264,50.2630103 C67.6704972,52.2628259 44.8455776,52.8929325 37.269315,48.5271241 C32.2184733,45.6165852 26.9555668,42.577093 21.4805954,39.4086474 L18.4250744,44.1664284 L4.91394478,39.6808956 C1.9939669,38.711498 0.0492689017,35.9491237 0.121418596,32.8732829 L0.263476809,26.7758788 L0.649163703,27.0004044 C5.22964137,29.6238134 10.5730857,31.8180479 16.6794967,33.5831077 C26.2752854,36.3567733 30.5081806,40.2549538 38.4760719,44.1590019 C46.2997684,47.9923986 70.2599401,49.0038589 77.8294635,42.7972445 L78.8924011,42.7959641 Z" id="Combined-Shape" fill="#191515"></path>
                            <path d="M48.4253064,23.0550597 L35.9223913,30.2459837 C34.344729,31.15336 32.3534078,30.8813183 31.0769331,29.5840278 L30.7035667,29.2045727 C29.646678,28.130449 29.6606497,26.4029221 30.7347735,25.3460334 C30.91633,25.1673901 31.1220066,25.0150489 31.3458127,24.8934469 L43.1976557,18.4539091 L43.1976557,18.4539091" id="Path-26" stroke="#544B4B"></path>
                        </g>
                    </g>
                    <g id="Group-5-Copy" transform="translate(314.701627, 227.873404) rotate(-24.000000) translate(-314.701627, -227.873404) translate(274.201627, 201.873404)">
                        <g id="Group-4" transform="translate(0.050593, 0.000000)">
                            <path d="M34.3046882,0.528615307 L34.5505623,3.82387501 C34.9941332,9.76871266 37.9434225,15.2448831 42.6629766,18.8868137 L54.0242113,27.6539193 L54.0242113,27.6539193 C38.5541481,30.4089286 30.8191165,31.7864333 30.8191165,31.7864333 C30.8191165,31.7864333 21.3509445,26.576797 2.41460046,16.1575243 L2.41460046,0.528615307 L34.3046882,0.528615307 Z" id="Path-27" fill="#FFB9B0"></path>
                            <path d="M2.65837801,8.19073569 C5.28801264,13.868523 8.99698196,17.9740281 13.785286,20.5072512 C18.57359,23.0404743 23.4919396,23.9248065 28.5403348,23.1602479 L29.8480473,21.0148967 C31.2398121,18.7316545 33.4049213,17.0238448 35.9495225,16.2021334 C38.2709036,15.452505 40.816554,16.0886652 42.5123785,17.8422137 C47.0024288,22.4850265 51.8792782,25.7721995 57.1429267,27.7037326 C66.5999169,31.1740421 77.8249931,33.3881718 77.8249931,42.7959641 L78.8924011,42.7959641 C79.8341042,46.4407845 78.1992126,48.9297999 73.9877264,50.2630103 C67.6704972,52.2628259 44.8455776,52.8929325 37.269315,48.5271241 C32.2184733,45.6165852 26.9555668,42.577093 21.4805954,39.4086474 L18.4250744,44.1664284 L4.91394478,39.6808956 C1.9939669,38.711498 0.0492689017,35.9491237 0.121418596,32.8732829 L0.532136394,15.3638175 C0.549081261,14.6414345 0.67777301,13.9260304 0.913638369,13.2430283 L2.65837801,8.19073569 L2.65837801,8.19073569 Z" id="Path-24" fill="#2C2626"></path>
                            <path d="M78.8924011,42.7959641 C79.8341042,46.4407845 78.1992126,48.9297999 73.9877264,50.2630103 C67.6704972,52.2628259 44.8455776,52.8929325 37.269315,48.5271241 C32.2184733,45.6165852 26.9555668,42.577093 21.4805954,39.4086474 L18.4250744,44.1664284 L4.91394478,39.6808956 C1.9939669,38.711498 0.0492689017,35.9491237 0.121418596,32.8732829 L0.263476809,26.7758788 L0.649163703,27.0004044 C5.22964137,29.6238134 10.5730857,31.8180479 16.6794967,33.5831077 C26.2752854,36.3567733 30.5081806,40.2549538 38.4760719,44.1590019 C46.2997684,47.9923986 70.2599401,49.0038589 77.8294635,42.7972445 L78.8924011,42.7959641 Z" id="Combined-Shape" fill="#191515"></path>
                            <path d="M48.4253064,23.0550597 L35.9223913,30.2459837 C34.344729,31.15336 32.3534078,30.8813183 31.0769331,29.5840278 L30.7035667,29.2045727 C29.646678,28.130449 29.6606497,26.4029221 30.7347735,25.3460334 C30.91633,25.1673901 31.1220066,25.0150489 31.3458127,24.8934469 L43.1976557,18.4539091 L43.1976557,18.4539091" id="Path-26" stroke="#544B4B"></path>
                        </g>
                    </g>
                    <g id="Group-3">
                        <path d="M68.2328286,5.68434189e-14 L184.43168,5.68434189e-14 C196.151988,5.46904333e-14 207.688489,2.91339102 218.003497,8.47811936 C228.131046,13.9417171 235.917309,22.9126008 239.901785,33.7080673 L304.617697,209.048152 L304.617697,209.048152 L270.512911,224.047398 L202.288108,81.7374582 L70.1608836,53.1814319 L68.2328286,5.68434189e-14 Z" id="Path-23" stroke="#2D2829" fill="#2D2829"></path>
                        <path d="M1.71483756,0.294912898 L0.653503584,30.9863201 C0.25042495,42.6424537 6.22446117,53.5938265 16.2432205,59.5647881 C26.9652113,65.9548603 38.8496374,70.1516551 51.2066912,71.9115781 L146.689962,85.5105481 C151.380623,86.1786039 154.958643,90.0467096 155.259751,94.7751267 L164.915595,246.404632 L164.915595,246.404632 L201.763393,246.404632 L208.313501,70.1945552 C208.611809,62.1695139 206.337738,54.2591463 201.823118,47.6177251 C197.314682,40.9854032 190.756526,36.0137216 183.153033,33.4640964 L83.3564022,0 L83.3564022,0 L1.71483756,0.294912898 Z" id="Path-22" stroke="#2D2829" fill="#FFFFFF"></path>
                        <path d="M1.54007667,3.84123442 C32.7525072,8.30401865 56.4514604,8.77950897 72.6369364,5.26770538" id="Path-41" stroke="#2D2829"></path>
                        <path d="M16.3542771,5.71435096 C10.0301728,27.3883964 12.3657135,41.2035277 23.3608993,47.1597449 C39.8536779,56.0940707 143.354277,65.4411826 158.854277,79.7165276 C165.780274,86.0953019 165.756415,117.748244 167.631291,165.498761 C168.246204,181.159761 169.124692,208.128384 170.266755,246.404632" id="Path-42" stroke="#2D2829"></path>
                        <line x1="279.804179" y1="220.1284" x2="206.815767" y2="60.6860786" id="Path-43" stroke="#FFFFFF"></line>
                    </g>
                </g>
                <g id="Clothes" transform="translate(0.000000, 76.848146)">
                    <path d="M44.3311275,128.151854 C54.7773647,130.74934 67.3429181,132.32079 82.0277877,132.866205 C96.7126573,133.411619 112.749626,131.694731 130.138695,127.71554 L127.097801,56.7651783 L134.939757,63.223965 L153.098786,24.4246047 L151.38127,23.0530514 C132.751278,8.17573587 109.418929,0.443992585 85.5912486,1.25192204 L64.6223967,1.96291667 L64.6223967,1.96291667 L36.7309531,11.8921066 C28.7856831,14.720576 21.2301391,18.5427904 14.2442562,23.2677238 L12.0499896,24.7518259 C5.50302331,29.1798962 1.36549582,36.3811224 0.837214485,44.2672808 C0.294209608,52.3732314 2.43435174,60.4325599 6.92728751,67.2012243 L24.4686321,93.6274813 L24.4686321,93.6274813 L40.0520654,83.1044041 L44.3311275,128.151854 Z" id="Path-44" fill="#0070E0"></path>
                    <polyline id="Path-47" stroke="#2D2829" points="36.1420491 37.6558388 58.6377112 69.3321806 26.1146121 92.5039118"></polyline>
                </g>
                <g transform="translate(45.361167, 7.000000)" id="Head">
                    <g transform="translate(0.528367, 0.000000)">
                        <path d="M45.2411593,32.2692554 L46.5337024,25.5905162 C47.3027539,21.6167267 47.2810654,17.5303255 46.4698768,13.5649231 C45.6887932,9.74668537 43.3026215,6.44911097 39.9200354,4.51335738 L38.6372183,3.77923928 C34.3227558,1.31020049 29.3977969,0.112158829 24.4313025,0.323519229 L23.4050109,0.36719539 C17.8060517,0.605471759 12.437623,2.66359619 8.11430929,6.22927681 L7.38837222,6.82799806 C2.74110294,10.6608631 0.18592816,16.4698488 0.50115099,22.485545 L1.12301128,34.3530947 C1.5826055,43.1239671 6.01991191,51.2055677 13.17373,56.3008907 L13.17373,56.3008907 L13.17373,56.3008907 L28.2593316,50.7857819 L45.2411593,32.2692554 Z" id="Path-2" fill="#2C2626"></path>
                        <path d="M7.07992827,56.3015108 L8.90906739,46.4700671 L6.03448678,43.2214673 C1.94659264,37.9107655 3.29295076,32.0713948 6.9460437,32.0713948 C9.38143899,32.0713948 11.303718,34.3162999 12.7128807,38.8061102 L12.7128807,32.0713948 C20.8084228,31.348913 8.0646887,15.6362986 22.7535897,18.9828628 C32.5461904,21.2139057 40.0420469,20.955033 45.2411593,18.206245 C45.2411593,26.190205 45.2411593,33.6593939 45.2411593,40.6138117 C45.2411593,44.3643616 44.9766365,48.432906 44.447591,52.819445 C43.6432839,59.4883299 37.6725289,64.3024732 30.9847476,63.6743674 L30.9847476,63.6743674 L30.9847476,63.6743674 L30.9847476,81.2775678 C29.2499518,84.470517 25.1971955,86.0669916 18.8264788,86.0669916 C12.455762,86.0669916 7.33728047,83.1829546 3.47103424,77.4148805 L7.07992827,56.3015108 Z" id="Path" fill="#FFB9B0"></path>
                        <path d="M18.8264788,57.3128606 C18.8264788,57.3128606 22.4041506,62.2660365 30.9847476,63.6743674 L30.9847476,80.3320427 C22.879235,64.9859213 18.8264788,57.3128606 18.8264788,57.3128606 Z" id="Path-3" fill="#2D2829"></path>
                        <path d="M8.36622366,34.0417916 L8.67170991,38.6432078 C7.0976944,40.2446103 7.28448422,41.6553266 9.23207936,42.8753566" id="Path-4" stroke="#2D2829"></path>
                        <ellipse id="Oval" stroke="#000000" cx="44.0915383" cy="34.684706" rx="5.64699389" ry="5.64305177"></ellipse>
                        <ellipse id="Oval-Copy" stroke="#000000" cx="29.7485526" cy="34.0021447" rx="5.64699389" ry="5.64305177"></ellipse>
                        <line x1="7.61642936" y1="31.1940111" x2="23.8492972" y2="34.0021447" id="Path-5" stroke="#000000" stroke-linecap="round"></line>
                        <path d="M36.8906096,32.7510144 L36.3699382,39.780409 L38.0393356,40.4231133 C38.8136176,40.7212055 39.3244483,41.4652517 39.3244483,42.2949332 C39.3244483,42.9695099 38.7775959,43.5163624 38.1030192,43.5163624 C38.0542923,43.5163624 38.0056091,43.5134466 37.9572306,43.5076306 L33.7782399,43.0052388 L33.7782399,43.0052388" id="Path-7" stroke="#2D2829"></path>
                        <line x1="35.6518928" y1="34.0021447" x2="38.2304244" y2="34.0021447" id="Path-6" stroke="#000000" stroke-linecap="round"></line>
                        <path d="M27.0165553,48.2819934 C28.8378868,50.9081442 31.4653975,51.9141739 34.8990873,51.3000824" id="Path-8" stroke="#2D2829"></path>
                        <ellipse id="Oval" fill="#000000" cx="29.7485526" cy="34.0021447" rx="1.36599864" ry="1.36512262"></ellipse>
                        <ellipse id="Oval-Copy-2" fill="#000000" cx="42.7255397" cy="34.0021447" rx="1.36599864" ry="1.36512262"></ellipse>
                        <line x1="24.2121291" y1="26.34283" x2="31.850185" y2="24.9002017" id="Path-9" stroke="#2C2626" stroke-width="2"></line>
                        <line x1="39.9211135" y1="26.34283" x2="47.5591693" y2="24.9002017" id="Path-9-Copy" stroke="#2C2626" stroke-width="2" transform="translate(43.740141, 25.621516) scale(-1, 1) translate(-43.740141, -25.621516) "></line>
                    </g>
                </g>
                <g id="Group-2" transform="translate(115.361167, 77.000000)" stroke="#2D2829">
                    <rect id="Rectangle" fill="#FFFFFF" x="12" y="0" width="126" height="91" rx="4"></rect>
                    <rect id="Rectangle-Copy-3" fill="#FFFFFF" x="16" y="4" width="118" height="76" rx="3.19999981"></rect>
                    <rect id="Rectangle-Copy-2" fill="#8294BB" x="0.5" y="83.5" width="149" height="8" rx="4"></rect>
                </g>
                <g id="Bill" transform="translate(143.000000, 3.000000)">
                    <path d="M4.80000019,0 L47.9196411,0 C50.570608,4.012037e-16 52.7196413,2.14903329 52.7196413,4.80000019 L52.7196413,106.559998 L52.7196413,106.559998 L7.91999984,106.559998 C3.54590471,106.559998 3.55309653e-13,103.014093 3.52997624e-13,98.639998 L3.52997624e-13,4.80000019 C3.52672974e-13,2.14903329 2.14903329,1.37515314e-15 4.80000019,0 Z" id="Rectangle" fill="#C4D7E7"></path>
                    <g id="Group-7-Copy" transform="translate(6.587197, 57.532096)" stroke="#FFFFFF" stroke-width="0.719999986">
                        <line x1="0" y1="7.55999985" x2="31.2096063" y2="7.55999985" id="Path-107-Copy"></line>
                        <line x1="0" y1="14.7599997" x2="31.2096063" y2="14.7599997" id="Path-107-Copy-2"></line>
                        <line x1="0" y1="21.9599996" x2="18.9696065" y2="21.9599996" id="Path-107-Copy-3"></line>
                        <line x1="0" y1="0.359999993" x2="31.2096063" y2="0.359999993" id="Path-107-Copy-4"></line>
                    </g>
                    <path d="M20.319642,69.1199986 L64.2396411,69.1199986 C68.6137362,69.1199986 72.1596409,72.6659033 72.1596409,77.0399985 L72.1596409,119.519998 L72.1596409,119.519998 L28.2396418,119.519998 L28.2396418,77.7425046 C28.2396418,73.4270582 25.0554309,69.7733741 20.7804785,69.1835782 L20.319642,69.1199986 L20.319642,69.1199986 Z" id="Rectangle" fill="#C4D7E7"></path>
                    <path d="M21.2048257,69.1199986 C17.1327177,69.1199986 13.8316219,72.4210944 13.8316219,76.4932023 L13.8316219,99.3806691 C13.8316219,102.10118 12.1323252,104.532024 9.57732214,105.466444 L6.5871968,106.559998 L6.5871968,106.559998 L28.5780294,106.559998 L28.5780294,76.4932023 C28.5780294,72.4210944 25.2769336,69.1199986 21.2048257,69.1199986 Z" id="Path-48" fill="#A8BDD9"></path>
                    <line x1="21.1339604" y1="69.1199986" x2="52.7196413" y2="69.1199986" id="Path-106" stroke="#A7BDDA" stroke-width="0.719999986"></line>
                    <g id="Group-7" transform="translate(6.587197, 13.612097)" stroke="#FFFFFF">
                        <line x1="0" y1="0.359999993" x2="38.4096061" y2="0.359999993" id="Path-107" stroke-width="7.91999984"></line>
                        <line x1="3.8369307e-14" y1="19.7999996" x2="31.2096063" y2="19.7999996" id="Path-107-Copy" stroke-width="0.719999986"></line>
                        <line x1="3.8369307e-14" y1="26.9999995" x2="31.2096063" y2="26.9999995" id="Path-107-Copy-2" stroke-width="0.719999986"></line>
                        <line x1="-1.02318152e-13" y1="34.1999993" x2="18.9696065" y2="34.1999993" id="Path-107-Copy-3" stroke-width="0.719999986"></line>
                        <line x1="3.8369307e-14" y1="12.5999997" x2="31.2096063" y2="12.5999997" id="Path-107-Copy-4" stroke-width="0.719999986"></line>
                    </g>
                    <g id="Group-11" transform="translate(39.918981, 83.758417)" stroke="#FFFFFF" stroke-width="0.719999986">
                        <line x1="-3.27418086e-13" y1="0.359999993" x2="24.4336062" y2="0.359999993" id="Path-108"></line>
                        <line x1="-3.27418086e-13" y1="7.55999985" x2="24.4336062" y2="7.55999985" id="Path-108-Copy"></line>
                        <line x1="-3.27418086e-13" y1="14.7599997" x2="24.4336062" y2="14.7599997" id="Path-108-Copy-2"></line>
                        <line x1="-3.27418086e-13" y1="21.9599996" x2="24.4336062" y2="21.9599996" id="Path-108-Copy-3"></line>
                    </g>
                </g>
                <g id="Card" transform="translate(117.000000, 125.000000)">
                    <rect id="Rectangle" stroke="#2D2829" fill="#FFDB7D" x="0" y="0" width="42" height="25" rx="2"></rect>
                    <rect id="Rectangle" fill="#FFFFFF" x="4" y="17" width="8" height="5" rx="1"></rect>
                    <polygon id="Rectangle" fill="#605A48" opacity="0.200000003" points="0.498817075 6 41.5030899 6 41.5030899 13 0.498817075 13"></polygon>
                    <circle id="Oval" fill="#FFFFFF" cx="31.5" cy="19.5" r="2.5"></circle>
                    <circle id="Oval-Copy-6" stroke="#FFDC76" fill="#FFFFFF" cx="34.5" cy="19.5" r="2"></circle>
                </g>
                <g id="Group-12" transform="translate(168.000000, 130.000000)">
                    <rect id="Rectangle" fill="#309D37" x="0" y="0" width="55" height="17" rx="8.5"></rect>
                    <path d="M19.4941406,12.1972656 L19.4941406,9.609375 L21.0224609,9.609375 C21.819987,9.609375 22.4335938,9.43359375 22.8632812,9.08203125 C23.2929688,8.73046875 23.5078125,8.12988281 23.5078125,7.28027344 C23.5078125,6.50227865 23.2929688,5.92773438 22.8632812,5.55664062 C22.4335938,5.18554688 21.8574219,5 21.1347656,5 L21.1347656,5 L18,5 L18,12.1972656 L19.4941406,12.1972656 Z M20.8955078,8.36914062 L19.4941406,8.36914062 L19.4941406,6.25 L20.8955078,6.25 C21.2503255,6.25 21.5262044,6.3297526 21.7231445,6.48925781 C21.9200846,6.64876302 22.0185547,6.9156901 22.0185547,7.29003906 C22.0185547,7.66438802 21.9200846,7.93782552 21.7231445,8.11035156 C21.5262044,8.2828776 21.2503255,8.36914062 20.8955078,8.36914062 L20.8955078,8.36914062 Z M25.7001953,12.1972656 L26.1982422,10.7177734 L28.8496094,10.7177734 L29.3134766,12.1972656 L30.9443359,12.1972656 L28.3955078,5 L26.6962891,5 L24.1279297,12.1972656 L25.7001953,12.1972656 Z M28.4296875,9.47753906 L26.6035156,9.47753906 L27.53125,6.64550781 L28.4296875,9.47753906 Z M35.2607422,12.1972656 L35.2607422,9.4921875 L37.6679688,5 L35.9638672,5 L34.5332031,8.13476562 L33.0390625,5 L31.2666016,5 L33.7568359,9.4921875 L33.7568359,12.1972656 L35.2607422,12.1972656 Z" id="PAY" fill="#FFFFFF" fill-rule="nonzero"></path>
                </g>
                <g id="money-coin" transform="translate(256.000000, 44.000000) rotate(35.000000) translate(-256.000000, -44.000000) translate(236.000000, 27.000000)">
                    <ellipse id="Oval" fill="#864540" cx="21.5380636" cy="16.7102983" rx="16.707096" ry="16.7102983"></ellipse>
                    <line x1="23.3496764" y1="3.01993342" x2="32.2064502" y2="3.01993342" id="Path-122" stroke="#FFFFFF" stroke-width="0.5"></line>
                    <line x1="25.7651601" y1="5.43588016" x2="34.6219339" y2="5.43588016" id="Path-122" stroke="#FFFFFF" stroke-width="0.5"></line>
                    <line x1="30.5961277" y1="7.85182689" x2="39.4529015" y2="7.85182689" id="Path-122" stroke="#FFFFFF" stroke-width="0.5"></line>
                    <line x1="30.5961277" y1="10.6704314" x2="39.4529015" y2="10.6704314" id="Path-122" stroke="#FFFFFF" stroke-width="0.5"></line>
                    <line x1="30.5961277" y1="13.4890359" x2="39.4529015" y2="13.4890359" id="Path-122" stroke="#FFFFFF" stroke-width="0.5"></line>
                    <line x1="30.5961277" y1="16.7102983" x2="39.4529015" y2="16.7102983" id="Path-122" stroke="#FFFFFF" stroke-width="0.5"></line>
                    <ellipse id="Oval" fill="#E46860" cx="16.707096" cy="16.7102983" rx="16.707096" ry="16.7102983"></ellipse>
                    <path d="M20.9341926,18.7793046 C20.9341926,19.6212078 20.6267802,20.2976324 20.0119462,20.8085988 C19.3971121,21.3195652 18.5363574,21.6253462 17.4296561,21.725951 L17.4296561,23.3541518 L16.3309799,23.3541518 L16.3309799,21.7577207 C15.0264624,21.7312458 13.8823536,21.5035647 12.8986191,21.0746707 L12.8986191,18.9778657 C13.3637545,19.2055502 13.9237797,19.4067568 14.5787116,19.5814914 C15.2336435,19.756226 15.8177271,19.8594767 16.3309799,19.8912467 L16.3309799,17.4290893 L15.7936711,17.2225858 C14.7350872,16.8095767 13.9852683,16.3608332 13.5441917,15.8763417 C13.1031151,15.3918503 12.8825801,14.7922019 12.8825801,14.0773784 C12.8825801,13.3096051 13.1859828,12.6781872 13.7927972,12.1831058 C14.3996117,11.6880244 15.2456641,11.3875383 16.3309799,11.2816385 L16.3309799,10.0664447 L17.4296561,10.0664447 L17.4296561,11.2498687 C18.6539778,11.3028186 19.7606625,11.5463844 20.7497433,11.9805735 L19.9959071,13.8391051 C19.1618713,13.5002259 18.3064629,13.2937244 17.4296561,13.2195946 L17.4296561,15.5626153 C18.4722008,15.9597394 19.2140003,16.3039085 19.6550769,16.5951328 C20.0961535,16.8863572 20.4196048,17.2066992 20.6254405,17.5561684 C20.8312763,17.9056377 20.9341926,18.3133457 20.9341926,18.7793046 Z M18.5203128,18.8984413 C18.5203128,18.6760518 18.4294256,18.4880825 18.2476486,18.3345278 C18.0658716,18.1809732 17.7932101,18.0221259 17.4296561,17.8579813 L17.4296561,19.8356496 C18.1567642,19.7138648 18.5203128,19.4014652 18.5203128,18.8984413 Z M15.2964599,14.0773784 C15.2964599,14.3103579 15.377991,14.5022984 15.5410557,14.6532055 C15.7041204,14.8041127 15.9674258,14.9589888 16.3309799,15.1178384 L16.3309799,13.2513644 C15.6412965,13.3519691 15.2964599,13.6273044 15.2964599,14.0773784 Z" id="$" fill="#FFFFFF"></path>
                    <ellipse id="Oval" stroke="#FFFFFF" stroke-width="0.5" cx="16.9083863" cy="16.9116272" rx="12.4799994" ry="12.4823915"></ellipse>
                </g>
                <g id="money-coin" transform="translate(218.500000, 61.500000) rotate(35.000000) translate(-218.500000, -61.500000) translate(205.000000, 50.000000)">
                    <circle id="Oval" fill="#864540" cx="14.5807368" cy="11.0496377" r="11.0399995"></circle>
                    <line x1="15.4941922" y1="2.24072806" x2="21.254192" y2="2.24072806" id="Path-122" stroke="#FFFFFF" stroke-width="0.5"></line>
                    <line x1="16.9886519" y1="3.53818324" x2="22.7486516" y2="3.53818324" id="Path-122" stroke="#FFFFFF" stroke-width="0.5"></line>
                    <line x1="20.4886405" y1="5.18926728" x2="26.2486402" y2="5.18926728" id="Path-122" stroke="#FFFFFF" stroke-width="0.5"></line>
                    <line x1="20.5282046" y1="6.91947952" x2="26.2882043" y2="6.91947952" id="Path-122" stroke="#FFFFFF" stroke-width="0.5"></line>
                    <line x1="20.1745757" y1="8.92500844" x2="25.9345755" y2="8.92500844" id="Path-122" stroke="#FFFFFF" stroke-width="0.5"></line>
                    <line x1="20.4894565" y1="11.0484137" x2="26.2494563" y2="11.0484137" id="Path-122" stroke="#FFFFFF" stroke-width="0.5"></line>
                    <circle id="Oval" fill="#E46860" cx="11.1203123" cy="11.1287659" r="11.0399995"></circle>
                    <path d="M13.9569087,12.3364273 C13.9569087,12.8838538 13.7553171,13.323682 13.3521278,13.6559251 C12.9489386,13.9881683 12.3844821,14.1869947 11.6587415,14.2524105 L11.6587415,15.3111074 L10.9382634,15.3111074 L10.9382634,14.273068 C10.082801,14.2558533 9.33252965,14.1078094 8.68742685,13.8289317 L8.68742685,12.4655367 C8.99244828,12.6135828 9.35969559,12.7444124 9.78917979,12.8580292 C10.218664,12.971646 10.601688,13.0387822 10.9382634,13.0594398 L10.9382634,11.4584835 L10.5859128,11.3242098 C9.89172612,11.0556609 9.40001791,10.7638766 9.11077345,10.4488482 C8.82152899,10.1338197 8.67690893,9.74391329 8.67690893,9.2791172 C8.67690893,8.77989178 8.87587107,8.36932806 9.27380133,8.04741373 C9.67173159,7.7254994 10.2265467,7.53011583 10.9382634,7.46125715 L10.9382634,6.67110776 L11.6587415,6.67110776 L11.6587415,7.44059965 C12.461614,7.47502899 13.1873437,7.63340158 13.8359525,7.91572216 L13.3416099,9.12418595 C12.7946749,8.90383817 12.2337244,8.76956576 11.6587415,8.72136469 L11.6587415,10.2448554 C12.3424102,10.5030754 12.8288595,10.7268628 13.1181039,10.9162241 C13.4073484,11.1055855 13.6194578,11.3138799 13.7544386,11.5411135 C13.8894193,11.7683472 13.9569087,12.0334491 13.9569087,12.3364273 Z M12.3739606,12.4138929 C12.3739606,12.2692897 12.3143596,12.1470674 12.1951558,12.0472223 C12.075952,11.9473772 11.897149,11.8440907 11.6587415,11.7373598 L11.6587415,13.0232892 C12.1355566,12.9441017 12.3739606,12.7409716 12.3739606,12.4138929 Z M10.2598571,9.2791172 C10.2598571,9.4306063 10.3133227,9.55541078 10.4202555,9.6535344 C10.5271883,9.75165802 10.6998558,9.85236233 10.9382634,9.95565035 L10.9382634,8.74202219 C10.4859902,8.80743793 10.2598571,8.98646781 10.2598571,9.2791172 Z" id="$" fill="#FFFFFF"></path>
                    <circle id="Oval" stroke="#FFFFFF" stroke-width="0.5" cx="11.1203123" cy="11.1287659" r="8.15999964"></circle>
                </g>
                <g id="money-coin-copy" transform="translate(245.500000, 77.500000) rotate(35.000000) translate(-245.500000, -77.500000) translate(232.000000, 66.000000)">
                    <circle id="Oval" fill="#864540" cx="14.5807368" cy="11.0496377" r="11.0399995"></circle>
                    <line x1="15.4941922" y1="2.24072806" x2="21.254192" y2="2.24072806" id="Path-122" stroke="#FFFFFF" stroke-width="0.5"></line>
                    <line x1="16.9886519" y1="3.53818324" x2="22.7486516" y2="3.53818324" id="Path-122" stroke="#FFFFFF" stroke-width="0.5"></line>
                    <line x1="20.4886405" y1="5.18926728" x2="26.2486402" y2="5.18926728" id="Path-122" stroke="#FFFFFF" stroke-width="0.5"></line>
                    <line x1="20.5282046" y1="6.91947952" x2="26.2882043" y2="6.91947952" id="Path-122" stroke="#FFFFFF" stroke-width="0.5"></line>
                    <line x1="20.1745757" y1="8.92500844" x2="25.9345755" y2="8.92500844" id="Path-122" stroke="#FFFFFF" stroke-width="0.5"></line>
                    <line x1="20.4894565" y1="11.0484137" x2="26.2494563" y2="11.0484137" id="Path-122" stroke="#FFFFFF" stroke-width="0.5"></line>
                    <circle id="Oval" fill="#E46860" cx="11.1203123" cy="11.1287659" r="11.0399995"></circle>
                    <path d="M13.9569087,12.3364273 C13.9569087,12.8838538 13.7553171,13.323682 13.3521278,13.6559251 C12.9489386,13.9881683 12.3844821,14.1869947 11.6587415,14.2524105 L11.6587415,15.3111074 L10.9382634,15.3111074 L10.9382634,14.273068 C10.082801,14.2558533 9.33252965,14.1078094 8.68742685,13.8289317 L8.68742685,12.4655367 C8.99244828,12.6135828 9.35969559,12.7444124 9.78917979,12.8580292 C10.218664,12.971646 10.601688,13.0387822 10.9382634,13.0594398 L10.9382634,11.4584835 L10.5859128,11.3242098 C9.89172612,11.0556609 9.40001791,10.7638766 9.11077345,10.4488482 C8.82152899,10.1338197 8.67690893,9.74391329 8.67690893,9.2791172 C8.67690893,8.77989178 8.87587107,8.36932806 9.27380133,8.04741373 C9.67173159,7.7254994 10.2265467,7.53011583 10.9382634,7.46125715 L10.9382634,6.67110776 L11.6587415,6.67110776 L11.6587415,7.44059965 C12.461614,7.47502899 13.1873437,7.63340158 13.8359525,7.91572216 L13.3416099,9.12418595 C12.7946749,8.90383817 12.2337244,8.76956576 11.6587415,8.72136469 L11.6587415,10.2448554 C12.3424102,10.5030754 12.8288595,10.7268628 13.1181039,10.9162241 C13.4073484,11.1055855 13.6194578,11.3138799 13.7544386,11.5411135 C13.8894193,11.7683472 13.9569087,12.0334491 13.9569087,12.3364273 Z M12.3739606,12.4138929 C12.3739606,12.2692897 12.3143596,12.1470674 12.1951558,12.0472223 C12.075952,11.9473772 11.897149,11.8440907 11.6587415,11.7373598 L11.6587415,13.0232892 C12.1355566,12.9441017 12.3739606,12.7409716 12.3739606,12.4138929 Z M10.2598571,9.2791172 C10.2598571,9.4306063 10.3133227,9.55541078 10.4202555,9.6535344 C10.5271883,9.75165802 10.6998558,9.85236233 10.9382634,9.95565035 L10.9382634,8.74202219 C10.4859902,8.80743793 10.2598571,8.98646781 10.2598571,9.2791172 Z" id="$" fill="#FFFFFF"></path>
                    <circle id="Oval" stroke="#FFFFFF" stroke-width="0.5" cx="11.1203123" cy="11.1287659" r="8.15999964"></circle>
                </g>
                <g id="Hand" transform="translate(26.114612, 147.286900)">
                    <path d="M176.381466,20.3994893 L176.381466,20.3994893 L176.381466,20.3994893 L170.061268,20.3994893 L151.236739,20.3994893 C153.123801,16.2849527 154.315782,13.0207666 154.812684,10.6069312 C155.309586,8.19309569 155.061135,6.30639875 154.067331,4.94684036 C149.800314,10.8313384 146.760616,14.2896149 144.948235,15.3216698 C143.135855,16.3537248 141.156262,18.0463313 139.009457,20.3994893 L50.4347807,20.3994893 L31.1991756,7.10542736e-15 C10.3997252,14.7101056 -3.26849658e-13,22.0651585 -3.26849658e-13,22.0651585 C6.01603834,28.1783916 12.0320767,34.2916247 18.048115,40.4048578 C21.6519628,44.0669291 25.5469436,47.4306175 29.694736,50.4628286 C33.671434,53.3699626 38.6726153,54.5047498 43.5145621,53.5986001 L142.472834,35.0789823 L142.472834,35.0789823 L162.066298,33.1968741 C169.1225,32.5190698 174.920341,27.3359522 176.381466,20.3994893 Z" id="Path-45" fill="#FFB9B0"></path>
                    <line x1="50.4347807" y1="20.3994893" x2="41.1873749" y2="36.7645745" id="Path-49" stroke="#2D2829"></line>
                    <path d="M149.335451,23.685762 L151.236739,20.3994893 L176.381466,20.3994893 C175.727745,22.7300277 174.981197,24.4976341 174.141824,25.7023085" id="Path-50" stroke="#2D2829"></path>
                    <polyline id="Path-51" stroke="#2D2829" points="110.748685 20.0712987 139.245029 20.0712987 136.839616 23.685762"></polyline>
                </g>
                <g id="Hand" transform="translate(237.757832, 85.031631)">
                    <path d="M16.0413338,5.3098467 C13.1989404,5.86174992 10.5346137,7.10031135 8.28047076,8.91762714 L1.37794149,14.482525 C0.586243929,15.1208006 0.381516379,16.2426771 0.896738064,17.1194481 C1.4152292,18.0017828 2.49276361,18.3839503 3.45132884,18.0254808 L6.65316995,16.8281057 L6.65316995,16.8281057 L3.79123561,20.0534697 C3.0557585,20.8823432 2.95491784,22.0969204 3.54363208,23.0357353 C4.08804271,23.9038998 5.2331611,24.1663541 6.10132558,23.6219435 C6.10528487,23.6194607 6.10923477,23.6169629 6.11317519,23.6144503 L10.4930874,20.8215549 L10.4930874,20.8215549 L8.18365457,23.6644132 C7.49969482,24.5063518 7.52326939,25.7189904 8.23943577,26.5337096 C8.94344278,27.3345961 10.1399769,27.4712595 11.0064448,26.8497465 L14.9942666,23.9893025 L14.9942666,23.9893025 L13.8699824,26.1015053 C13.3761952,27.0291877 13.5680173,28.1729686 14.3374363,28.8888002 C15.0722505,29.5724372 16.2108217,29.5707534 16.9436108,28.8849461 L19.7641963,26.2451987 C22.3937625,23.7842236 23.8860709,20.343684 23.8860709,16.7421541 L23.8860709,16.4472919 C23.8860709,12.5906664 22.6394797,8.83734667 20.3321934,5.74704082 L16.0413338,-1.77635684e-14 L16.0413338,-1.77635684e-14 L16.0413338,5.3098467 Z" id="Path-46" fill="#FFB9B0"></path>
                    <line x1="6.65316995" y1="16.8281057" x2="16.8408228" y2="10.5551742" id="Path-52" stroke="#2D2829"></line>
                    <line x1="10.4930874" y1="20.8215549" x2="19.2999874" y2="14.6283176" id="Path-53" stroke="#2D2829"></line>
                    <line x1="14.8965374" y1="24.2875843" x2="21.8467034" y2="18.9683692" id="Path-54" stroke="#2D2829"></line>
                </g>
            </g>
        </g>
    </g>
</svg>